<svg xmlns="http://www.w3.org/2000/svg" xmlns:xlink="http://www.w3.org/1999/xlink" width="500" zoomAndPan="magnify" viewBox="0 0 375 374.999991" height="500" preserveAspectRatio="xMidYMid meet" version="1.0"><defs><clipPath id="66efc4cd00"><path d="M 221 128 L 348 128 L 348 317.953125 L 221 317.953125 Z M 221 128 " clip-rule="nonzero"/></clipPath><clipPath id="a96131e33a"><path d="M 27 128 L 154 128 L 154 317.953125 L 27 317.953125 Z M 27 128 " clip-rule="nonzero"/></clipPath></defs><g clip-path="url(#66efc4cd00)"><path fill="#d14023" d="M 252.582031 276.9375 C 252.582031 285.570312 252.84375 294.214844 252.507812 302.835938 C 252.140625 312.277344 246.367188 317.804688 237.4375 318.015625 C 228.609375 318.210938 221.566406 312.851562 221.382812 303.75 C 220.867188 278.480469 220.894531 253.179688 221.351562 227.914062 C 221.511719 219.367188 228.453125 213.832031 237.609375 213.609375 C 249.019531 213.335938 260.441406 213.300781 271.84375 213.597656 C 277.3125 213.738281 279.695312 212.882812 280.152344 206.3125 C 281.261719 190.378906 284.042969 174.601562 288.832031 159.273438 C 294.65625 140.613281 310.902344 128.671875 330.300781 128.804688 C 343.835938 128.898438 349.714844 136.574219 346.132812 150.101562 C 340.71875 170.566406 335.039062 190.949219 329.402344 211.347656 C 320.34375 244.125 320.316406 244.117188 285.914062 244.117188 C 277.890625 244.117188 269.84375 244.542969 261.859375 243.984375 C 254.882812 243.488281 251.773438 245.15625 252.480469 252.90625 C 253.214844 260.851562 252.648438 268.921875 252.648438 276.9375 C 252.628906 276.9375 252.601562 276.9375 252.582031 276.9375 Z M 252.582031 276.9375 " fill-opacity="1" fill-rule="evenodd"/></g><g clip-path="url(#a96131e33a)"><path fill="#d14023" d="M 153.925781 265.832031 C 153.925781 277.554688 154.078125 289.277344 153.882812 300.996094 C 153.707031 311.714844 147.246094 318.207031 137.453125 317.992188 C 128.050781 317.789062 122.382812 311.542969 122.308594 300.890625 C 122.199219 284.851562 121.945312 268.796875 122.4375 252.773438 C 122.644531 246.097656 121.28125 243.582031 113.980469 243.921875 C 100.125 244.570312 86.210938 244.207031 72.332031 244.074219 C 59.929688 243.957031 53.148438 238.777344 49.757812 226.558594 C 42.523438 200.539062 35.398438 174.484375 28.472656 148.375 C 25.371094 136.679688 31.457031 129.105469 43.589844 128.808594 C 63.902344 128.3125 81.253906 140.808594 86.847656 160.839844 C 90.90625 175.351562 93.945312 190.175781 94.609375 205.285156 C 94.875 211.414062 96.464844 214.050781 103.15625 213.660156 C 112.996094 213.074219 122.894531 213.472656 132.773438 213.511719 C 148.632812 213.578125 153.902344 218.785156 153.929688 234.359375 C 153.941406 244.851562 153.925781 255.339844 153.925781 265.832031 Z M 153.925781 265.832031 " fill-opacity="1" fill-rule="evenodd"/></g><path fill="#d14023" d="M 188.546875 112.121094 C 198.097656 112.121094 207.648438 112.019531 217.207031 112.140625 C 233.972656 112.351562 246.097656 124.375 246.601562 141.15625 C 246.679688 143.621094 246.628906 146.085938 246.628906 148.550781 C 246.632812 160.875 246.617188 160.523438 234.738281 160.898438 C 228.546875 161.097656 225.679688 159.753906 226.445312 152.953125 C 226.78125 150.003906 228.25 144.648438 223.824219 144.476562 C 218.910156 144.277344 220.558594 149.726562 220.933594 152.539062 C 221.917969 159.816406 218.875 161.121094 212.25 160.921875 C 196.238281 160.429688 180.199219 160.429688 164.1875 160.921875 C 157.597656 161.121094 155.214844 159.082031 156.246094 152.699219 C 156.488281 151.203125 156.328125 149.621094 156.175781 148.09375 C 156.003906 146.230469 155.621094 144.027344 153.277344 144.160156 C 151.265625 144.277344 150.25 146 150.378906 148.136719 C 150.394531 148.445312 150.425781 148.757812 150.378906 149.0625 C 149.804688 152.871094 152.394531 158.800781 148.871094 160.105469 C 143.984375 161.914062 137.964844 160.664062 132.425781 160.71875 C 130.511719 160.734375 129.679688 159.625 129.757812 157.859375 C 130.171875 148.398438 127.8125 138.574219 132.019531 129.585938 C 137.085938 118.765625 145.753906 112.433594 158.035156 112.160156 C 168.199219 111.941406 178.371094 112.121094 188.546875 112.121094 Z M 188.546875 112.121094 " fill-opacity="1" fill-rule="evenodd"/><path fill="#d14023" d="M 189.121094 190.003906 C 163.8125 190.003906 138.492188 189.648438 113.199219 190.214844 C 105.515625 190.382812 105.445312 186.769531 106.007812 181.417969 C 106.511719 176.578125 103.308594 170.46875 113.191406 170.550781 C 163.5 170.976562 213.8125 170.96875 264.117188 170.53125 C 272.785156 170.453125 270.847656 175.449219 270.617188 179.902344 C 270.390625 184.277344 273.648438 190.410156 264.117188 190.191406 C 239.132812 189.621094 214.121094 190.003906 189.121094 190.003906 Z M 189.121094 190.003906 " fill-opacity="1" fill-rule="evenodd"/><path fill="#d14023" d="M 291.339844 273.355469 C 286.09375 273.355469 280.847656 273.320312 275.601562 273.363281 C 270.136719 273.410156 266.460938 270.875 266.195312 265.394531 C 265.902344 259.402344 270.089844 257.65625 275.386719 257.675781 C 284.023438 257.703125 292.667969 257.714844 301.304688 257.667969 C 320.863281 257.574219 332.363281 248.90625 337.554688 230.066406 C 344.324219 205.523438 350.980469 180.953125 357.527344 156.355469 C 359.03125 150.699219 361.476562 145.851562 368.058594 147.796875 C 374.382812 149.660156 374.292969 154.941406 372.738281 160.660156 C 366.089844 185.246094 359.964844 209.96875 353.164062 234.523438 C 346.25 259.492188 327.5 273.316406 301.527344 273.355469 C 298.128906 273.359375 294.730469 273.355469 291.339844 273.355469 Z M 291.339844 273.355469 " fill-opacity="1" fill-rule="evenodd"/><path fill="#d14023" d="M 82.757812 273.355469 C 76.492188 272.859375 69.164062 273.671875 61.742188 272.210938 C 41.214844 268.164062 28.164062 255.914062 22.460938 236.402344 C 15.140625 211.367188 8.878906 186.03125 2.242188 160.796875 C 0.832031 155.429688 0.410156 149.582031 7.007812 147.746094 C 13.589844 145.917969 16.003906 150.71875 17.515625 156.429688 C 23.949219 180.757812 30.660156 205.015625 37.175781 229.320312 C 42.285156 248.378906 54.097656 257.601562 73.816406 257.675781 C 82.453125 257.703125 91.09375 257.703125 99.734375 257.679688 C 105.03125 257.660156 109.410156 259.644531 109.113281 265.363281 C 108.851562 270.484375 105.113281 273.429688 99.582031 273.371094 C 94.332031 273.308594 89.085938 273.355469 82.757812 273.355469 Z M 82.757812 273.355469 " fill-opacity="1" fill-rule="evenodd"/><path fill="#d14023" d="M 344.847656 94.546875 C 344.828125 108.554688 333.621094 119.710938 319.632812 119.652344 C 305.617188 119.589844 294.546875 108.402344 294.609375 94.34375 C 294.664062 80.328125 305.800781 69.328125 319.863281 69.375 C 333.984375 69.425781 344.863281 80.390625 344.847656 94.546875 Z M 344.847656 94.546875 " fill-opacity="1" fill-rule="evenodd"/><path fill="#d14023" d="M 80.285156 93.871094 C 80.402344 108.039062 69.570312 119.332031 55.601562 119.613281 C 42.050781 119.886719 30.089844 108.339844 29.757812 94.664062 C 29.417969 80.648438 41.105469 69.242188 55.765625 69.277344 C 69.476562 69.316406 80.171875 80.039062 80.285156 93.871094 Z M 80.285156 93.871094 " fill-opacity="1" fill-rule="evenodd"/><path fill="#d14023" d="M 211.621094 80.515625 C 211.675781 93.761719 201.621094 103.746094 188.339844 103.648438 C 175.367188 103.554688 164.832031 92.960938 165.027344 80.207031 C 165.214844 67.976562 175.773438 57.539062 188.167969 57.34375 C 201.175781 57.136719 211.574219 67.402344 211.621094 80.515625 Z M 211.621094 80.515625 " fill-opacity="1" fill-rule="evenodd"/></svg>